<mxfile host="app.diagrams.net" agent="Mozilla/5.0 (Windows NT 10.0; Win64; x64) AppleWebKit/537.36 (KHTML, like Gecko) Chrome/135.0.0.0 Safari/537.36 OPR/120.0.0.0" version="28.2.0">
  <diagram name="Gateway Security" id="JCOrZ1CxBGOPEMjygQDn">
    <mxGraphModel dx="50299" dy="25549" grid="0" gridSize="10" guides="1" tooltips="1" connect="1" arrows="1" fold="1" page="0" pageScale="1" pageWidth="291" pageHeight="413" background="none" math="0" shadow="0">
      <root>
        <mxCell id="0" />
        <mxCell id="1" parent="0" />
        <mxCell id="uysvjnHe-gaITb4ts8Dn-10" style="endArrow=block" parent="1" edge="1" />
        <mxCell id="uysvjnHe-gaITb4ts8Dn-11" style="endArrow=block" parent="1" edge="1" />
        <mxCell id="uysvjnHe-gaITb4ts8Dn-12" style="endArrow=block" parent="1" edge="1" />
        <mxCell id="uysvjnHe-gaITb4ts8Dn-13" style="endArrow=block" parent="1" edge="1" />
        <mxCell id="uysvjnHe-gaITb4ts8Dn-14" style="endArrow=block" parent="1" edge="1" />
        <mxCell id="uysvjnHe-gaITb4ts8Dn-15" style="endArrow=block" parent="1" edge="1" />
        <mxCell id="uysvjnHe-gaITb4ts8Dn-16" style="endArrow=block" parent="1" edge="1" />
        <mxCell id="uysvjnHe-gaITb4ts8Dn-17" style="endArrow=block" parent="1" edge="1" />
        <mxCell id="Qj6SqwlDsyFUhkEptKqb-39" style="fontStyle=1;fontSize=15;" parent="1" edge="1">
          <mxGeometry relative="1" as="geometry">
            <mxPoint x="-120" y="-196.875" as="sourcePoint" />
            <mxPoint x="-20" y="-203.125" as="targetPoint" />
          </mxGeometry>
        </mxCell>
        <mxCell id="TngklpUK372EJ_DTqBVW-1" value="" style="rounded=1;fillColor=#dae8fc;strokeColor=#6c8ebf;fontStyle=1;fontSize=15;" parent="1" vertex="1">
          <mxGeometry x="-340" y="-340" width="500" height="100" as="geometry" />
        </mxCell>
        <mxCell id="TngklpUK372EJ_DTqBVW-2" value="Asynchronous messaging manager" style="rounded=1;fillColor=#FFFFFF;strokeColor=#007ACC;fontStyle=1;fontSize=15;" parent="TngklpUK372EJ_DTqBVW-1" vertex="1">
          <mxGeometry x="11" y="40" width="264" height="40" as="geometry" />
        </mxCell>
        <mxCell id="TngklpUK372EJ_DTqBVW-3" value="REST API" style="rounded=1;fillColor=#FFFFFF;strokeColor=#007ACC;fontStyle=1;fontSize=15;" parent="TngklpUK372EJ_DTqBVW-1" vertex="1">
          <mxGeometry x="285" y="40" width="200" height="40" as="geometry" />
        </mxCell>
        <mxCell id="TngklpUK372EJ_DTqBVW-13" value="&lt;span data-end=&quot;385&quot; data-start=&quot;349&quot;&gt;Presentation Layer&lt;/span&gt;" style="text;html=1;align=center;verticalAlign=middle;whiteSpace=wrap;rounded=0;fontStyle=1;fontSize=15;" parent="TngklpUK372EJ_DTqBVW-1" vertex="1">
          <mxGeometry x="180" width="140" height="30" as="geometry" />
        </mxCell>
        <mxCell id="TngklpUK372EJ_DTqBVW-4" value="Business Layer" style="rounded=1;fillColor=#dae8fc;strokeColor=#6c8ebf;fontStyle=1;fontSize=15;" parent="1" vertex="1">
          <mxGeometry x="-340" y="-210" width="500" height="60" as="geometry" />
        </mxCell>
        <mxCell id="TngklpUK372EJ_DTqBVW-5" value="Business Layer" style="rounded=1;fillColor=#FFFFFF;strokeColor=#007ACC;fontStyle=1;fontSize=15;" parent="TngklpUK372EJ_DTqBVW-4" vertex="1">
          <mxGeometry x="150" y="20" width="200" height="30" as="geometry" />
        </mxCell>
        <mxCell id="TngklpUK372EJ_DTqBVW-6" value="DAO Layer" style="rounded=1;fillColor=#dae8fc;strokeColor=#6c8ebf;fontStyle=1;fontSize=15;" parent="1" vertex="1">
          <mxGeometry x="-340" y="-130" width="500" height="60" as="geometry" />
        </mxCell>
        <mxCell id="TngklpUK372EJ_DTqBVW-7" value="Data Access Layer" style="rounded=1;fillColor=#FFFFFF;strokeColor=#007ACC;fontStyle=1;fontSize=15;" parent="TngklpUK372EJ_DTqBVW-6" vertex="1">
          <mxGeometry x="150" y="20" width="200" height="30" as="geometry" />
        </mxCell>
        <mxCell id="TngklpUK372EJ_DTqBVW-8" value="Database" style="shape=ellipse;perimeter=ellipsePerimeter;fillColor=#f5f5f5;strokeColor=#666666;fontColor=#333333;fontStyle=1;fontSize=17;" parent="1" vertex="1">
          <mxGeometry x="-170" y="-40" width="160" height="80" as="geometry" />
        </mxCell>
        <mxCell id="TngklpUK372EJ_DTqBVW-9" style="endArrow=block;fontStyle=1;fontSize=15;" parent="1" source="TngklpUK372EJ_DTqBVW-2" target="TngklpUK372EJ_DTqBVW-5" edge="1">
          <mxGeometry relative="1" as="geometry" />
        </mxCell>
        <mxCell id="TngklpUK372EJ_DTqBVW-10" style="endArrow=block;fontStyle=1;fontSize=15;" parent="1" source="TngklpUK372EJ_DTqBVW-3" target="TngklpUK372EJ_DTqBVW-5" edge="1">
          <mxGeometry relative="1" as="geometry" />
        </mxCell>
        <mxCell id="TngklpUK372EJ_DTqBVW-11" style="endArrow=block;fontStyle=1;fontSize=15;" parent="1" source="TngklpUK372EJ_DTqBVW-5" target="TngklpUK372EJ_DTqBVW-7" edge="1">
          <mxGeometry relative="1" as="geometry" />
        </mxCell>
        <mxCell id="TngklpUK372EJ_DTqBVW-12" style="endArrow=block;fontStyle=1;fontSize=15;" parent="1" source="TngklpUK372EJ_DTqBVW-7" target="TngklpUK372EJ_DTqBVW-8" edge="1">
          <mxGeometry relative="1" as="geometry" />
        </mxCell>
      </root>
    </mxGraphModel>
  </diagram>
</mxfile>
